<svg width="32" height="32" viewBox="0 0 32 32" fill="none" xmlns="http://www.w3.org/2000/svg">
  <defs>
    <linearGradient id="audioGradient" x1="0%" y1="0%" x2="100%" y2="100%">
      <stop offset="0%" style="stop-color:#06b6d4;stop-opacity:1" />
      <stop offset="100%" style="stop-color:#3b82f6;stop-opacity:1" />
    </linearGradient>
    <filter id="audioGlow">
      <feGaussianBlur stdDeviation="1" result="coloredBlur"/>
      <feMerge> 
        <feMergeNode in="coloredBlur"/>
        <feMergeNode in="SourceGraphic"/>
      </feMerge>
    </filter>
  </defs>
  
  <!-- Background circle -->
  <circle cx="16" cy="16" r="15" fill="url(#audioGradient)" opacity="0.1"/>
  
  <!-- Audio waveform bars representing T2A -->
  <rect x="6" y="18" width="2" height="8" fill="url(#audioGradient)" opacity="0.9" filter="url(#audioGlow)"/>
  <rect x="9" y="14" width="2" height="12" fill="url(#audioGradient)" opacity="0.9" filter="url(#audioGlow)"/>
  <rect x="12" y="10" width="2" height="16" fill="url(#audioGradient)" opacity="0.9" filter="url(#audioGlow)"/>
  <rect x="15" y="8" width="2" height="20" fill="url(#audioGradient)" opacity="0.9" filter="url(#audioGlow)"/>
  <rect x="18" y="12" width="2" height="14" fill="url(#audioGradient)" opacity="0.9" filter="url(#audioGradient)"/>
  <rect x="21" y="16" width="2" height="10" fill="url(#audioGradient)" opacity="0.9" filter="url(#audioGlow)"/>
  <rect x="24" y="20" width="2" height="6" fill="url(#audioGradient)" opacity="0.9" filter="url(#audioGlow)"/>
  
  <!-- Neural connection dots -->
  <circle cx="7" cy="12" r="1" fill="white" opacity="0.8"/>
  <circle cx="13" cy="6" r="1" fill="white" opacity="0.8"/>
  <circle cx="19" cy="8" r="1" fill="white" opacity="0.8"/>
  <circle cx="25" cy="14" r="1" fill="white" opacity="0.8"/>
  
  <!-- Connection lines representing LoRA adaptation -->
  <path d="M7 12 Q10 9 13 6" stroke="white" stroke-width="0.6" opacity="0.5" fill="none"/>
  <path d="M13 6 Q16 7 19 8" stroke="white" stroke-width="0.6" opacity="0.5" fill="none"/>
  <path d="M19 8 Q22 11 25 14" stroke="white" stroke-width="0.6" opacity="0.5" fill="none"/>
</svg>
